<svg id="レイヤー_1" data-name="レイヤー 1" xmlns="http://www.w3.org/2000/svg" viewBox="0 0 283.46 283.46"><defs><style>.cls-1{fill-rule:evenodd;fill:white;}</style></defs><title>アートボード 1</title><path class="cls-1" d="M116.15,171.44a13.58,13.58,0,0,1-1.22-5.69c0-6.61,4.55-12,10.16-12s10.15,5.37,10.15,12c0,5-2.57,9.25-6.24,11.06,4.41,0,9.17-1.53,12.11-5s4.29-9.41,4.29-15.08c0-11.07-7.4-20-16.53-20s-16.54,9-16.54,20c0,5.23.77,10.68,3.47,14.24.11.15.23.29.35.43Zm-15.57-63c4.85-6.63,14.62-17.33,24.71-22.64s24.84-9.72,45.71-8,31.87,10.23,37.31,14.45,12.45,13.39,16.52,24.47,7.55,22.7,7.61,40.33-3.65,31.87-12.94,40l-.72.61a33.74,33.74,0,0,1-32.43,6c-10.7-3.88-13.08-7.55-16.24-15.16s-4.51-19.28-4.54-27.54.46-9.1.44-13.32-2.76-3.93-3.26-.12a97.05,97.05,0,0,0-.77,11.38c0,3.65.3,13.11.87,18.23s2.28,12.92,4,16.66a60.16,60.16,0,0,0,4.9,8.27s-7.19,3.68-21.34,3.88-22.07,0-33.87-1.26-26.13-4.41-35.67-8.06-14.35-7-21.12-13-12.22-15.16-5.9-19.36,8.42-.47,11.37,1.86c1.93,1.51,5.71,5.33,11.47,7.33s7.52,2,10.56,0c4.22-2.73,2.14-17.57,2.13-20.92s-.54-14.9,1.94-23.47,4.44-14,9.29-20.63Z"/></svg>
